<mxfile host="Electron" agent="Mozilla/5.0 (Windows NT 10.0; Win64; x64) AppleWebKit/537.36 (KHTML, like Gecko) draw.io/27.0.9 Chrome/134.0.6998.205 Electron/35.4.0 Safari/537.36" version="27.0.9">
  <diagram name="PÃ¡gina-1" id="WjGkQe-c2hMBbzgqHkUj">
    <mxGraphModel dx="1169" dy="2279" grid="1" gridSize="10" guides="1" tooltips="1" connect="1" arrows="1" fold="1" page="1" pageScale="1" pageWidth="1200" pageHeight="1600" math="0" shadow="0">
      <root>
        <mxCell id="0" />
        <mxCell id="1" parent="0" />
        <mxCell id="B-vahNaULA-1w-hWWKOj-1" value="Revista" style="whiteSpace=wrap;html=1;align=center;fillColor=#f0a30a;strokeColor=#BD7000;fontColor=#000000;" parent="1" vertex="1">
          <mxGeometry x="530" y="80" width="100" height="40" as="geometry" />
        </mxCell>
        <mxCell id="B-vahNaULA-1w-hWWKOj-2" value="sucursal" style="whiteSpace=wrap;html=1;align=center;fillColor=#f0a30a;strokeColor=#BD7000;fontColor=#000000;" parent="1" vertex="1">
          <mxGeometry x="350" y="210" width="100" height="40" as="geometry" />
        </mxCell>
        <mxCell id="B-vahNaULA-1w-hWWKOj-3" value="Periodista" style="whiteSpace=wrap;html=1;align=center;fillColor=#f0a30a;strokeColor=#BD7000;fontColor=#000000;" parent="1" vertex="1">
          <mxGeometry x="560" y="350" width="100" height="40" as="geometry" />
        </mxCell>
        <mxCell id="B-vahNaULA-1w-hWWKOj-5" value="Empleado" style="whiteSpace=wrap;html=1;align=center;fillColor=#f0a30a;strokeColor=#BD7000;fontColor=#000000;" parent="1" vertex="1">
          <mxGeometry x="160" y="90" width="100" height="40" as="geometry" />
        </mxCell>
        <mxCell id="B-vahNaULA-1w-hWWKOj-12" value="Escribe" style="shape=rhombus;perimeter=rhombusPerimeter;whiteSpace=wrap;html=1;align=center;fillColor=#76608a;fontColor=#ffffff;strokeColor=#432D57;" parent="1" vertex="1">
          <mxGeometry x="580" y="230" width="90" height="40" as="geometry" />
        </mxCell>
        <mxCell id="B-vahNaULA-1w-hWWKOj-13" value="" style="endArrow=none;html=1;rounded=0;exitX=0;exitY=0.5;exitDx=0;exitDy=0;" parent="1" source="B-vahNaULA-1w-hWWKOj-12" target="B-vahNaULA-1w-hWWKOj-1" edge="1">
          <mxGeometry relative="1" as="geometry">
            <mxPoint x="407" y="270" as="sourcePoint" />
            <mxPoint x="360" y="300" as="targetPoint" />
          </mxGeometry>
        </mxCell>
        <mxCell id="B-vahNaULA-1w-hWWKOj-14" value="(1,N)" style="resizable=0;html=1;whiteSpace=wrap;align=right;verticalAlign=bottom;" parent="B-vahNaULA-1w-hWWKOj-13" connectable="0" vertex="1">
          <mxGeometry x="1" relative="1" as="geometry">
            <mxPoint x="34" as="offset" />
          </mxGeometry>
        </mxCell>
        <mxCell id="B-vahNaULA-1w-hWWKOj-15" value="" style="endArrow=none;html=1;rounded=0;exitX=1;exitY=0.5;exitDx=0;exitDy=0;" parent="1" source="B-vahNaULA-1w-hWWKOj-12" target="B-vahNaULA-1w-hWWKOj-3" edge="1">
          <mxGeometry relative="1" as="geometry">
            <mxPoint x="407" y="270" as="sourcePoint" />
            <mxPoint x="580" y="300" as="targetPoint" />
          </mxGeometry>
        </mxCell>
        <mxCell id="B-vahNaULA-1w-hWWKOj-16" value="(1,N)" style="resizable=0;html=1;whiteSpace=wrap;align=right;verticalAlign=bottom;" parent="B-vahNaULA-1w-hWWKOj-15" connectable="0" vertex="1">
          <mxGeometry x="1" relative="1" as="geometry">
            <mxPoint as="offset" />
          </mxGeometry>
        </mxCell>
        <mxCell id="B-vahNaULA-1w-hWWKOj-17" value="Publican" style="shape=rhombus;perimeter=rhombusPerimeter;whiteSpace=wrap;html=1;align=center;fillColor=#76608a;fontColor=#ffffff;strokeColor=#432D57;" parent="1" vertex="1">
          <mxGeometry x="430" y="130" width="90" height="40" as="geometry" />
        </mxCell>
        <mxCell id="B-vahNaULA-1w-hWWKOj-18" value="" style="endArrow=none;html=1;rounded=0;exitX=0;exitY=0.5;exitDx=0;exitDy=0;" parent="1" source="B-vahNaULA-1w-hWWKOj-17" target="B-vahNaULA-1w-hWWKOj-2" edge="1">
          <mxGeometry relative="1" as="geometry">
            <mxPoint x="397" y="180" as="sourcePoint" />
            <mxPoint x="350" y="210" as="targetPoint" />
          </mxGeometry>
        </mxCell>
        <mxCell id="B-vahNaULA-1w-hWWKOj-19" value="(1,1)" style="resizable=0;html=1;whiteSpace=wrap;align=right;verticalAlign=bottom;" parent="B-vahNaULA-1w-hWWKOj-18" connectable="0" vertex="1">
          <mxGeometry x="1" relative="1" as="geometry">
            <mxPoint x="34" as="offset" />
          </mxGeometry>
        </mxCell>
        <mxCell id="B-vahNaULA-1w-hWWKOj-20" value="" style="endArrow=none;html=1;rounded=0;exitX=1;exitY=0.5;exitDx=0;exitDy=0;" parent="1" source="B-vahNaULA-1w-hWWKOj-17" target="B-vahNaULA-1w-hWWKOj-1" edge="1">
          <mxGeometry relative="1" as="geometry">
            <mxPoint x="397" y="180" as="sourcePoint" />
            <mxPoint x="570" y="210" as="targetPoint" />
          </mxGeometry>
        </mxCell>
        <mxCell id="B-vahNaULA-1w-hWWKOj-21" value="(1,N)" style="resizable=0;html=1;whiteSpace=wrap;align=right;verticalAlign=bottom;" parent="B-vahNaULA-1w-hWWKOj-20" connectable="0" vertex="1">
          <mxGeometry x="1" relative="1" as="geometry">
            <mxPoint as="offset" />
          </mxGeometry>
        </mxCell>
        <mxCell id="B-vahNaULA-1w-hWWKOj-27" value="Trabaja" style="shape=rhombus;perimeter=rhombusPerimeter;whiteSpace=wrap;html=1;align=center;fillColor=#76608a;fontColor=#ffffff;strokeColor=#432D57;" parent="1" vertex="1">
          <mxGeometry x="250" y="150" width="90" height="40" as="geometry" />
        </mxCell>
        <mxCell id="B-vahNaULA-1w-hWWKOj-28" value="" style="endArrow=none;html=1;rounded=0;exitX=0;exitY=0.5;exitDx=0;exitDy=0;" parent="1" source="B-vahNaULA-1w-hWWKOj-27" target="B-vahNaULA-1w-hWWKOj-5" edge="1">
          <mxGeometry relative="1" as="geometry">
            <mxPoint x="227" y="150" as="sourcePoint" />
            <mxPoint x="180" y="180" as="targetPoint" />
          </mxGeometry>
        </mxCell>
        <mxCell id="B-vahNaULA-1w-hWWKOj-29" value="(1,N)" style="resizable=0;html=1;whiteSpace=wrap;align=right;verticalAlign=bottom;" parent="B-vahNaULA-1w-hWWKOj-28" connectable="0" vertex="1">
          <mxGeometry x="1" relative="1" as="geometry">
            <mxPoint x="34" as="offset" />
          </mxGeometry>
        </mxCell>
        <mxCell id="B-vahNaULA-1w-hWWKOj-30" value="" style="endArrow=none;html=1;rounded=0;exitX=1;exitY=0.5;exitDx=0;exitDy=0;" parent="1" source="B-vahNaULA-1w-hWWKOj-27" target="B-vahNaULA-1w-hWWKOj-2" edge="1">
          <mxGeometry relative="1" as="geometry">
            <mxPoint x="227" y="150" as="sourcePoint" />
            <mxPoint x="400" y="180" as="targetPoint" />
          </mxGeometry>
        </mxCell>
        <mxCell id="B-vahNaULA-1w-hWWKOj-31" value="(1,1)" style="resizable=0;html=1;whiteSpace=wrap;align=right;verticalAlign=bottom;" parent="B-vahNaULA-1w-hWWKOj-30" connectable="0" vertex="1">
          <mxGeometry x="1" relative="1" as="geometry">
            <mxPoint as="offset" />
          </mxGeometry>
        </mxCell>
        <mxCell id="B-vahNaULA-1w-hWWKOj-34" value="" style="endArrow=none;html=1;rounded=0;" parent="1" source="B-vahNaULA-1w-hWWKOj-5" target="B-vahNaULA-1w-hWWKOj-35" edge="1">
          <mxGeometry relative="1" as="geometry">
            <mxPoint x="167.5" y="35" as="sourcePoint" />
            <mxPoint x="227.5" y="35" as="targetPoint" />
          </mxGeometry>
        </mxCell>
        <mxCell id="B-vahNaULA-1w-hWWKOj-35" value="&lt;u&gt;DNI&lt;/u&gt;" style="ellipse;whiteSpace=wrap;html=1;align=center;" parent="1" vertex="1">
          <mxGeometry x="202.5" y="20" width="50" height="30" as="geometry" />
        </mxCell>
        <mxCell id="B-vahNaULA-1w-hWWKOj-36" value="" style="endArrow=none;html=1;rounded=0;exitX=0.195;exitY=-0.058;exitDx=0;exitDy=0;exitPerimeter=0;" parent="1" source="B-vahNaULA-1w-hWWKOj-5" target="B-vahNaULA-1w-hWWKOj-37" edge="1">
          <mxGeometry relative="1" as="geometry">
            <mxPoint x="440" y="185" as="sourcePoint" />
            <mxPoint x="500" y="185" as="targetPoint" />
          </mxGeometry>
        </mxCell>
        <mxCell id="B-vahNaULA-1w-hWWKOj-37" value="Telefono" style="ellipse;whiteSpace=wrap;html=1;align=center;" parent="1" vertex="1">
          <mxGeometry x="110" y="20" width="50" height="30" as="geometry" />
        </mxCell>
        <mxCell id="B-vahNaULA-1w-hWWKOj-38" value="" style="endArrow=none;html=1;rounded=0;" parent="1" source="B-vahNaULA-1w-hWWKOj-3" target="B-vahNaULA-1w-hWWKOj-39" edge="1">
          <mxGeometry relative="1" as="geometry">
            <mxPoint x="690" y="385" as="sourcePoint" />
            <mxPoint x="750" y="385" as="targetPoint" />
          </mxGeometry>
        </mxCell>
        <mxCell id="B-vahNaULA-1w-hWWKOj-39" value="&lt;u&gt;DNI&lt;/u&gt;" style="ellipse;whiteSpace=wrap;html=1;align=center;" parent="1" vertex="1">
          <mxGeometry x="725" y="370" width="50" height="30" as="geometry" />
        </mxCell>
        <mxCell id="B-vahNaULA-1w-hWWKOj-40" value="" style="endArrow=none;html=1;rounded=0;" parent="1" source="B-vahNaULA-1w-hWWKOj-3" target="B-vahNaULA-1w-hWWKOj-41" edge="1">
          <mxGeometry relative="1" as="geometry">
            <mxPoint x="440" y="185" as="sourcePoint" />
            <mxPoint x="500" y="185" as="targetPoint" />
          </mxGeometry>
        </mxCell>
        <mxCell id="B-vahNaULA-1w-hWWKOj-41" value="Especialidad" style="ellipse;whiteSpace=wrap;html=1;align=center;" parent="1" vertex="1">
          <mxGeometry x="600" y="430" width="50" height="30" as="geometry" />
        </mxCell>
        <mxCell id="B-vahNaULA-1w-hWWKOj-42" value="" style="endArrow=none;html=1;rounded=0;" parent="1" source="B-vahNaULA-1w-hWWKOj-3" target="B-vahNaULA-1w-hWWKOj-43" edge="1">
          <mxGeometry relative="1" as="geometry">
            <mxPoint x="440" y="185" as="sourcePoint" />
            <mxPoint x="500" y="185" as="targetPoint" />
          </mxGeometry>
        </mxCell>
        <mxCell id="B-vahNaULA-1w-hWWKOj-43" value="Telefono" style="ellipse;whiteSpace=wrap;html=1;align=center;" parent="1" vertex="1">
          <mxGeometry x="530" y="450" width="50" height="30" as="geometry" />
        </mxCell>
        <mxCell id="B-vahNaULA-1w-hWWKOj-44" value="" style="endArrow=none;html=1;rounded=0;" parent="1" source="B-vahNaULA-1w-hWWKOj-2" target="B-vahNaULA-1w-hWWKOj-45" edge="1">
          <mxGeometry relative="1" as="geometry">
            <mxPoint x="445" y="275" as="sourcePoint" />
            <mxPoint x="505" y="275" as="targetPoint" />
          </mxGeometry>
        </mxCell>
        <mxCell id="B-vahNaULA-1w-hWWKOj-45" value="&lt;u&gt;Codigo&lt;/u&gt;" style="ellipse;whiteSpace=wrap;html=1;align=center;" parent="1" vertex="1">
          <mxGeometry x="480" y="260" width="50" height="30" as="geometry" />
        </mxCell>
        <mxCell id="B-vahNaULA-1w-hWWKOj-46" value="" style="endArrow=none;html=1;rounded=0;" parent="1" source="B-vahNaULA-1w-hWWKOj-2" target="B-vahNaULA-1w-hWWKOj-47" edge="1">
          <mxGeometry relative="1" as="geometry">
            <mxPoint x="440" y="185" as="sourcePoint" />
            <mxPoint x="500" y="185" as="targetPoint" />
          </mxGeometry>
        </mxCell>
        <mxCell id="B-vahNaULA-1w-hWWKOj-47" value="Telefono" style="ellipse;whiteSpace=wrap;html=1;align=center;" parent="1" vertex="1">
          <mxGeometry x="480" y="180" width="50" height="30" as="geometry" />
        </mxCell>
        <mxCell id="B-vahNaULA-1w-hWWKOj-48" value="" style="endArrow=none;html=1;rounded=0;" parent="1" source="B-vahNaULA-1w-hWWKOj-2" target="B-vahNaULA-1w-hWWKOj-49" edge="1">
          <mxGeometry relative="1" as="geometry">
            <mxPoint x="440" y="185" as="sourcePoint" />
            <mxPoint x="500" y="185" as="targetPoint" />
          </mxGeometry>
        </mxCell>
        <mxCell id="B-vahNaULA-1w-hWWKOj-49" value="Domicilio" style="ellipse;whiteSpace=wrap;html=1;align=center;" parent="1" vertex="1">
          <mxGeometry x="410" y="290" width="50" height="30" as="geometry" />
        </mxCell>
        <mxCell id="B-vahNaULA-1w-hWWKOj-50" value="" style="endArrow=none;html=1;rounded=0;" parent="1" source="B-vahNaULA-1w-hWWKOj-1" target="B-vahNaULA-1w-hWWKOj-51" edge="1">
          <mxGeometry relative="1" as="geometry">
            <mxPoint x="440" y="185" as="sourcePoint" />
            <mxPoint x="500" y="185" as="targetPoint" />
          </mxGeometry>
        </mxCell>
        <mxCell id="B-vahNaULA-1w-hWWKOj-51" value="&lt;u&gt;Numero_de_la_revista&lt;/u&gt;" style="ellipse;whiteSpace=wrap;html=1;align=center;" parent="1" vertex="1">
          <mxGeometry x="710" y="40" width="50" height="30" as="geometry" />
        </mxCell>
        <mxCell id="B-vahNaULA-1w-hWWKOj-52" value="" style="endArrow=none;html=1;rounded=0;" parent="1" source="B-vahNaULA-1w-hWWKOj-1" target="B-vahNaULA-1w-hWWKOj-53" edge="1">
          <mxGeometry relative="1" as="geometry">
            <mxPoint x="440" y="185" as="sourcePoint" />
            <mxPoint x="500" y="185" as="targetPoint" />
          </mxGeometry>
        </mxCell>
        <mxCell id="B-vahNaULA-1w-hWWKOj-53" value="Tipo" style="ellipse;whiteSpace=wrap;html=1;align=center;" parent="1" vertex="1">
          <mxGeometry x="670" y="180" width="50" height="30" as="geometry" />
        </mxCell>
        <mxCell id="B-vahNaULA-1w-hWWKOj-54" value="" style="endArrow=none;html=1;rounded=0;" parent="1" source="B-vahNaULA-1w-hWWKOj-1" target="B-vahNaULA-1w-hWWKOj-55" edge="1">
          <mxGeometry relative="1" as="geometry">
            <mxPoint x="440" y="185" as="sourcePoint" />
            <mxPoint x="500" y="185" as="targetPoint" />
          </mxGeometry>
        </mxCell>
        <mxCell id="B-vahNaULA-1w-hWWKOj-55" value="Titulo" style="ellipse;whiteSpace=wrap;html=1;align=center;" parent="1" vertex="1">
          <mxGeometry x="730" y="135" width="50" height="30" as="geometry" />
        </mxCell>
        <mxCell id="B-vahNaULA-1w-hWWKOj-56" value="" style="endArrow=none;html=1;rounded=0;exitX=0.67;exitY=0.075;exitDx=0;exitDy=0;exitPerimeter=0;" parent="1" source="B-vahNaULA-1w-hWWKOj-1" target="B-vahNaULA-1w-hWWKOj-57" edge="1">
          <mxGeometry relative="1" as="geometry">
            <mxPoint x="600" y="125" as="sourcePoint" />
            <mxPoint x="660" y="125" as="targetPoint" />
          </mxGeometry>
        </mxCell>
        <mxCell id="B-vahNaULA-1w-hWWKOj-57" value="Fecha" style="ellipse;whiteSpace=wrap;html=1;align=center;" parent="1" vertex="1">
          <mxGeometry x="520" y="10" width="50" height="30" as="geometry" />
        </mxCell>
        <mxCell id="vA9dp_3DRFksyfBaNGGK-7" value="" style="endArrow=none;html=1;rounded=0;" edge="1" target="vA9dp_3DRFksyfBaNGGK-8" parent="1" source="vA9dp_3DRFksyfBaNGGK-13">
          <mxGeometry relative="1" as="geometry">
            <mxPoint x="992.2222222222222" y="40" as="sourcePoint" />
            <mxPoint x="385" y="35" as="targetPoint" />
          </mxGeometry>
        </mxCell>
        <mxCell id="vA9dp_3DRFksyfBaNGGK-8" value="Fecha" style="ellipse;whiteSpace=wrap;html=1;align=center;" vertex="1" parent="1">
          <mxGeometry x="920" width="50" height="30" as="geometry" />
        </mxCell>
        <mxCell id="vA9dp_3DRFksyfBaNGGK-9" value="" style="endArrow=none;html=1;rounded=0;" edge="1" target="vA9dp_3DRFksyfBaNGGK-10" parent="1" source="vA9dp_3DRFksyfBaNGGK-13">
          <mxGeometry relative="1" as="geometry">
            <mxPoint x="994.3478260869565" y="40" as="sourcePoint" />
            <mxPoint x="375" y="25" as="targetPoint" />
          </mxGeometry>
        </mxCell>
        <mxCell id="vA9dp_3DRFksyfBaNGGK-10" value="Numero_Pagians" style="ellipse;whiteSpace=wrap;html=1;align=center;" vertex="1" parent="1">
          <mxGeometry x="800" y="-70" width="50" height="30" as="geometry" />
        </mxCell>
        <mxCell id="vA9dp_3DRFksyfBaNGGK-11" value="" style="endArrow=none;html=1;rounded=0;" edge="1" target="vA9dp_3DRFksyfBaNGGK-12" parent="1" source="vA9dp_3DRFksyfBaNGGK-13">
          <mxGeometry relative="1" as="geometry">
            <mxPoint x="1030" y="40" as="sourcePoint" />
            <mxPoint x="510" y="65" as="targetPoint" />
          </mxGeometry>
        </mxCell>
        <mxCell id="vA9dp_3DRFksyfBaNGGK-12" value="&lt;u&gt;Numero&lt;/u&gt;" style="ellipse;whiteSpace=wrap;html=1;align=center;" vertex="1" parent="1">
          <mxGeometry x="1005" y="-50" width="50" height="30" as="geometry" />
        </mxCell>
        <mxCell id="vA9dp_3DRFksyfBaNGGK-13" value="NumeroRevista" style="shape=ext;margin=3;double=1;whiteSpace=wrap;html=1;align=center;fillColor=#f0a30a;fontColor=#000000;strokeColor=#BD7000;" vertex="1" parent="1">
          <mxGeometry x="1010" y="70" width="100" height="40" as="geometry" />
        </mxCell>
        <mxCell id="vA9dp_3DRFksyfBaNGGK-14" value="Incluye" style="shape=rhombus;perimeter=rhombusPerimeter;whiteSpace=wrap;html=1;align=center;fillColor=#76608a;fontColor=#ffffff;strokeColor=#432D57;" vertex="1" parent="1">
          <mxGeometry x="810" y="80" width="90" height="40" as="geometry" />
        </mxCell>
        <mxCell id="vA9dp_3DRFksyfBaNGGK-15" value="" style="endArrow=none;html=1;rounded=0;exitX=0;exitY=0.5;exitDx=0;exitDy=0;" edge="1" source="vA9dp_3DRFksyfBaNGGK-14" parent="1" target="B-vahNaULA-1w-hWWKOj-1">
          <mxGeometry relative="1" as="geometry">
            <mxPoint x="787" y="80" as="sourcePoint" />
            <mxPoint x="740" y="110" as="targetPoint" />
          </mxGeometry>
        </mxCell>
        <mxCell id="vA9dp_3DRFksyfBaNGGK-16" value="(1,1)" style="resizable=0;html=1;whiteSpace=wrap;align=right;verticalAlign=bottom;" connectable="0" vertex="1" parent="vA9dp_3DRFksyfBaNGGK-15">
          <mxGeometry x="1" relative="1" as="geometry">
            <mxPoint x="34" as="offset" />
          </mxGeometry>
        </mxCell>
        <mxCell id="vA9dp_3DRFksyfBaNGGK-17" value="" style="endArrow=none;html=1;rounded=0;exitX=1;exitY=0.5;exitDx=0;exitDy=0;" edge="1" source="vA9dp_3DRFksyfBaNGGK-14" parent="1" target="vA9dp_3DRFksyfBaNGGK-13">
          <mxGeometry relative="1" as="geometry">
            <mxPoint x="787" y="80" as="sourcePoint" />
            <mxPoint x="960" y="110" as="targetPoint" />
          </mxGeometry>
        </mxCell>
        <mxCell id="vA9dp_3DRFksyfBaNGGK-18" value="(1,N)" style="resizable=0;html=1;whiteSpace=wrap;align=right;verticalAlign=bottom;" connectable="0" vertex="1" parent="vA9dp_3DRFksyfBaNGGK-17">
          <mxGeometry x="1" relative="1" as="geometry">
            <mxPoint as="offset" />
          </mxGeometry>
        </mxCell>
      </root>
    </mxGraphModel>
  </diagram>
</mxfile>
